<svg width="45" height="45" viewBox="0 0 45 45" fill="none" xmlns="http://www.w3.org/2000/svg">
<circle cx="22.5" cy="22.5" r="22.5" fill="#1A535C"/>
<path fill-rule="evenodd" clip-rule="evenodd" d="M18.81 13H27.191C30.28 13 32 14.78 32 17.83V28.16C32 31.26 30.28 33 27.191 33H18.81C15.77 33 14 31.26 14 28.16V17.83C14 14.78 15.77 13 18.81 13ZM19.08 17.66V17.65H22.069C22.5 17.65 22.85 18 22.85 18.429C22.85 18.87 22.5 19.22 22.069 19.22H19.08C18.649 19.22 18.3 18.87 18.3 18.44C18.3 18.01 18.649 17.66 19.08 17.66ZM19.08 23.74H26.92C27.35 23.74 27.7 23.39 27.7 22.96C27.7 22.53 27.35 22.179 26.92 22.179H19.08C18.649 22.179 18.3 22.53 18.3 22.96C18.3 23.39 18.649 23.74 19.08 23.74ZM19.08 28.31H26.92C27.319 28.27 27.62 27.929 27.62 27.53C27.62 27.12 27.319 26.78 26.92 26.74H19.08C18.78 26.71 18.49 26.85 18.33 27.11C18.17 27.36 18.17 27.69 18.33 27.95C18.49 28.2 18.78 28.35 19.08 28.31Z" fill="white"/>
</svg>
