<svg width="45" height="45" viewBox="0 0 45 45" fill="none" xmlns="http://www.w3.org/2000/svg">
<circle cx="22.5" cy="22.5" r="22.5" fill="#1A535C"/>
<path fill-rule="evenodd" clip-rule="evenodd" d="M24.2124 18.7624C24.2124 21.4062 22.0489 23.5248 19.3493 23.5248C16.6507 23.5248 14.4863 21.4062 14.4863 18.7624C14.4863 16.1187 16.6507 14 19.3493 14C22.0489 14 24.2124 16.1187 24.2124 18.7624ZM12 28.9174C12 26.47 15.3855 25.8577 19.3493 25.8577C23.3347 25.8577 26.6987 26.4911 26.6987 28.9404C26.6987 31.3877 23.3131 32 19.3493 32C15.364 32 12 31.3666 12 28.9174ZM26.1734 18.8487C26.1734 20.1951 25.7605 21.4513 25.0364 22.4948C24.9611 22.6021 25.0276 22.7468 25.1587 22.7698C25.3407 22.7995 25.5276 22.8177 25.7184 22.8216C27.6167 22.8704 29.3202 21.6736 29.7908 19.8712C30.4885 17.1968 28.4415 14.7954 25.8339 14.7954C25.5511 14.7954 25.2801 14.8242 25.0159 14.8769C24.9797 14.8845 24.9405 14.9018 24.921 14.9325C24.8955 14.9717 24.9141 15.0225 24.9396 15.0561C25.7233 16.1322 26.1734 17.4421 26.1734 18.8487ZM29.3173 24.7023C30.5932 24.9466 31.4317 25.444 31.7791 26.1694C32.0736 26.7635 32.0736 27.4534 31.7791 28.0475C31.2478 29.1705 29.5335 29.5318 28.8672 29.6247C28.7292 29.6439 28.6186 29.5289 28.6333 29.3928C28.9738 26.2805 26.2664 24.8048 25.5658 24.4656C25.5364 24.4493 25.5296 24.4263 25.5325 24.411C25.5345 24.4014 25.5472 24.3861 25.5697 24.3832C27.0854 24.3545 28.7155 24.5586 29.3173 24.7023Z" fill="white"/>
</svg>
