<svg width="34" height="34" viewBox="0 0 34 34" fill="none" xmlns="http://www.w3.org/2000/svg">
<rect width="34" height="34" rx="17" fill="white"/>
<path fill-rule="evenodd" clip-rule="evenodd" d="M14.4381 21.6584H18.9265C19.2648 21.6584 19.5453 21.375 19.5453 21.0334C19.5453 20.6917 19.2648 20.4167 18.9265 20.4167H14.4381C14.0998 20.4167 13.8193 20.6917 13.8193 21.0334C13.8193 21.375 14.0998 21.6584 14.4381 21.6584ZM17.2268 16.25H14.4381C14.0998 16.25 13.8193 16.5334 13.8193 16.875C13.8193 17.2167 14.0998 17.4917 14.4381 17.4917H17.2268C17.5651 17.4917 17.8457 17.2167 17.8457 16.875C17.8457 16.5334 17.5651 16.25 17.2268 16.25ZM23.115 15.5214C23.309 15.5191 23.5201 15.5167 23.712 15.5167C23.9183 15.5167 24.0833 15.6834 24.0833 15.8917V22.5917C24.0833 24.6584 22.4249 26.3334 20.3787 26.3334H13.811C11.6658 26.3334 9.91663 24.575 9.91663 22.4084V13.425C9.91663 11.3584 11.5833 9.66669 13.6377 9.66669H18.0437C18.2582 9.66669 18.4232 9.84169 18.4232 10.05V12.7334C18.4232 14.2584 19.6691 15.5084 21.179 15.5167C21.5317 15.5167 21.8426 15.5193 22.1147 15.5216C22.3264 15.5234 22.5146 15.525 22.6807 15.525C22.7981 15.525 22.9503 15.5233 23.115 15.5214ZM23.3425 14.305C22.6643 14.3075 21.8648 14.305 21.2897 14.2992C20.3772 14.2992 19.6255 13.54 19.6255 12.6184V10.4217C19.6255 10.0625 20.0571 9.88419 20.3038 10.1434C20.7503 10.6123 21.364 11.257 21.9749 11.8987C22.5841 12.5386 23.1905 13.1756 23.6255 13.6325C23.8665 13.885 23.6899 14.3042 23.3425 14.305Z" fill="#1A535C"/>
</svg>
