<svg width="34" height="34" viewBox="0 0 34 34" fill="none" xmlns="http://www.w3.org/2000/svg">
<rect width="34" height="34" rx="17" fill="#1A535C"/>
<path fill-rule="evenodd" clip-rule="evenodd" d="M13.7496 24.5H20.2496C22.7923 24.5 24.5 22.7164 24.5 20.0625V13.9375C24.5 11.2836 22.7923 9.5 20.2504 9.5H13.7496C11.2077 9.5 9.5 11.2836 9.5 13.9375V20.0625C9.5 22.7164 11.2077 24.5 13.7496 24.5ZM14.3741 16.25C13.3402 16.25 12.5 15.4087 12.5 14.375C12.5 13.3413 13.3402 12.5 14.3741 12.5C15.4074 12.5 16.2483 13.3413 16.2483 14.375C16.2483 15.4087 15.4074 16.25 14.3741 16.25ZM22.8656 19.2005C23.1168 19.8444 22.9863 20.6184 22.7178 21.2562C22.3995 22.0147 21.7901 22.589 21.0224 22.8398C20.6815 22.9512 20.324 23 19.9673 23H13.6465C13.0175 23 12.4609 22.8491 12.0046 22.5681C11.7188 22.3916 11.6683 21.9845 11.8802 21.7206C12.2347 21.2794 12.5846 20.8367 12.9376 20.3901C13.6103 19.5356 14.0635 19.2879 14.5673 19.5054C14.7717 19.5952 14.9769 19.7299 15.188 19.8723C15.7507 20.2547 16.5327 20.7802 17.563 20.2098C18.268 19.8149 18.6769 19.1376 19.0329 18.5478L19.0389 18.5379C19.0641 18.4966 19.0891 18.4552 19.1141 18.4139L19.1141 18.4139C19.2337 18.2159 19.3518 18.0205 19.4854 17.8406C19.6528 17.6153 20.2735 16.911 21.0774 17.4125C21.5895 17.7283 22.0202 18.1556 22.481 18.613C22.6567 18.7879 22.7819 18.9868 22.8656 19.2005Z" fill="white"/>
</svg>
