<svg width="34" height="34" viewBox="0 0 34 34" fill="none" xmlns="http://www.w3.org/2000/svg">
<rect width="34" height="34" rx="17" fill="white"/>
<path fill-rule="evenodd" clip-rule="evenodd" d="M22.0303 14.5972C22.0303 15.5392 22.2793 16.0944 22.8271 16.7342C23.2423 17.2055 23.375 17.8106 23.375 18.467C23.375 19.1227 23.1596 19.7451 22.728 20.2504C22.163 20.8563 21.3662 21.243 20.5529 21.3102C19.3745 21.4107 18.1952 21.4953 17.0004 21.4953C15.8048 21.4953 14.6263 21.4447 13.4478 21.3102C12.6338 21.243 11.837 20.8563 11.2727 20.2504C10.8412 19.7451 10.625 19.1227 10.625 18.467C10.625 17.8106 10.7584 17.2055 11.1729 16.7342C11.7379 16.0944 11.9704 15.5392 11.9704 14.5972V14.2777C11.9704 13.0163 12.285 12.1914 12.9327 11.3839C13.8958 10.2063 15.4395 9.5 16.9668 9.5H17.0339C18.594 9.5 20.1877 10.2403 21.1343 11.4685C21.7485 12.2594 22.0303 13.0495 22.0303 14.2777V14.5972ZM14.8053 23.0456C14.8053 22.6679 15.1519 22.495 15.4724 22.4209C15.8473 22.3416 18.132 22.3416 18.5069 22.4209C18.8274 22.495 19.174 22.6679 19.174 23.0456C19.1554 23.4052 18.9444 23.7239 18.653 23.9264C18.2751 24.221 17.8316 24.4076 17.3679 24.4748C17.1115 24.508 16.8596 24.5088 16.6121 24.4748C16.1477 24.4076 15.7042 24.221 15.327 23.9256C15.0348 23.7239 14.8239 23.4052 14.8053 23.0456Z" fill="#1A535C"/>
</svg>
