<svg width="64" height="64" viewBox="0 0 64 64" fill="none" xmlns="http://www.w3.org/2000/svg">
<rect width="64" height="64" rx="10" fill="#1A535C"/>
<path d="M47.5833 22.0833H43.3333V16.4167C43.3333 15.6347 42.6987 15 41.9167 15H19.25C16.9061 15 15 16.9061 15 19.25V44.75C15 47.0939 16.9061 49 19.25 49H44.75C47.0939 49 49 47.0939 49 44.75V23.5C49 22.718 48.3653 22.0833 47.5833 22.0833ZM19.25 46.1667C18.4687 46.1667 17.8333 45.5313 17.8333 44.75V19.25C17.8333 18.4687 18.4687 17.8333 19.25 17.8333H40.5V23.5V44.75C40.5 45.2472 40.5907 45.7225 40.7479 46.1667H19.25ZM46.1667 44.75C46.1667 45.5313 45.5313 46.1667 44.75 46.1667C43.9687 46.1667 43.3333 45.5313 43.3333 44.75V24.9167H46.1667V44.75Z" fill="white"/>
<path d="M36.25 22.0835H22.0833C21.3013 22.0835 20.6666 22.7182 20.6666 23.5002C20.6666 24.2822 21.3013 24.9168 22.0833 24.9168H36.25C37.032 24.9168 37.6666 24.2822 37.6666 23.5002C37.6666 22.7182 37.032 22.0835 36.25 22.0835Z" fill="white"/>
<path d="M33.4166 30.5835H22.0833C21.3013 30.5835 20.6666 31.2182 20.6666 32.0002C20.6666 32.7822 21.3013 33.4168 22.0833 33.4168H33.4166C34.1986 33.4168 34.8333 32.7822 34.8333 32.0002C34.8333 31.2182 34.1986 30.5835 33.4166 30.5835Z" fill="white"/>
<path d="M32 34.8335H22.0833C21.3013 34.8335 20.6666 35.4682 20.6666 36.2502C20.6666 37.0322 21.3013 37.6668 22.0833 37.6668H32C32.782 37.6668 33.4166 37.0322 33.4166 36.2502C33.4166 35.4682 32.782 34.8335 32 34.8335Z" fill="white"/>
<path d="M30.5833 39.0835H22.0833C21.3013 39.0835 20.6666 39.7182 20.6666 40.5002C20.6666 41.2822 21.3013 41.9168 22.0833 41.9168H30.5833C31.3653 41.9168 32 41.2822 32 40.5002C32 39.7182 31.3653 39.0835 30.5833 39.0835Z" fill="white"/>
</svg>
