<svg width="34" height="34" viewBox="0 0 34 34" fill="none" xmlns="http://www.w3.org/2000/svg">
<rect width="34" height="34" rx="17" fill="#1A535C"/>
<path fill-rule="evenodd" clip-rule="evenodd" d="M13.8575 9.5H20.1432C22.46 9.5 23.75 10.835 23.75 13.1225V20.87C23.75 23.195 22.46 24.5 20.1432 24.5H13.8575C11.5775 24.5 10.25 23.195 10.25 20.87V13.1225C10.25 10.835 11.5775 9.5 13.8575 9.5ZM14.06 12.995V12.9875H16.3018C16.625 12.9875 16.8875 13.25 16.8875 13.5717C16.8875 13.9025 16.625 14.165 16.3018 14.165H14.06C13.7368 14.165 13.475 13.9025 13.475 13.58C13.475 13.2575 13.7368 12.995 14.06 12.995ZM14.06 17.555H19.94C20.2625 17.555 20.525 17.2925 20.525 16.97C20.525 16.6475 20.2625 16.3842 19.94 16.3842H14.06C13.7368 16.3842 13.475 16.6475 13.475 16.97C13.475 17.2925 13.7368 17.555 14.06 17.555ZM14.06 20.9825H19.94C20.2393 20.9525 20.465 20.6967 20.465 20.3975C20.465 20.09 20.2393 19.835 19.94 19.805H14.06C13.835 19.7825 13.6175 19.8875 13.4975 20.0825C13.3775 20.27 13.3775 20.5175 13.4975 20.7125C13.6175 20.9 13.835 21.0125 14.06 20.9825Z" fill="white"/>
</svg>
