<svg width="54" height="54" viewBox="0 0 54 54" fill="none" xmlns="http://www.w3.org/2000/svg">
<rect opacity="0.06" width="54" height="54" rx="27" fill="#F5F5F5"/>
<path fill-rule="evenodd" clip-rule="evenodd" d="M17 25.6699C17 20.8817 20.8403 17 25.5776 17C27.8526 17 30.0343 17.9134 31.6429 19.5394C33.2516 21.1653 34.1553 23.3705 34.1553 25.6699C34.1553 30.4582 30.3149 34.3399 25.5776 34.3399C20.8403 34.3399 17 30.4582 17 25.6699ZM34.0134 32.6543L36.568 34.7164H36.6124C37.1292 35.2388 37.1292 36.0858 36.6124 36.6082C36.0955 37.1306 35.2576 37.1306 34.7407 36.6082L32.6207 34.1785C32.4203 33.9766 32.3076 33.7024 32.3076 33.4164C32.3076 33.1304 32.4203 32.8562 32.6207 32.6543C33.0072 32.2704 33.6268 32.2704 34.0134 32.6543Z" fill="#272727"/>
</svg>
