<svg width="34" height="34" viewBox="0 0 34 34" fill="none" xmlns="http://www.w3.org/2000/svg">
<rect width="34" height="34" rx="17" fill="white"/>
<path fill-rule="evenodd" clip-rule="evenodd" d="M20.4653 13.8607C20.4653 15.8188 18.9043 17.3888 16.9576 17.3888C15.0108 17.3888 13.4498 15.8188 13.4498 13.8607C13.4498 11.9019 15.0108 10.3333 16.9576 10.3333C18.9043 10.3333 20.4653 11.9019 20.4653 13.8607ZM16.9576 23.6666C14.0982 23.6666 11.6568 23.2133 11.6568 21.4001C11.6568 19.5861 14.0826 19.1163 16.9576 19.1163C19.8169 19.1163 22.2583 19.5696 22.2583 21.3836C22.2583 23.1968 19.8325 23.6666 16.9576 23.6666ZM21.9643 13.9243C21.9643 14.9225 21.6666 15.8524 21.1442 16.6254C21.0905 16.705 21.1383 16.8123 21.233 16.8288C21.3636 16.8513 21.4987 16.8641 21.636 16.8678C23.0052 16.9038 24.2341 16.0175 24.5736 14.6831C25.0765 12.701 23.5999 10.9216 21.7195 10.9216C21.5151 10.9216 21.3196 10.9433 21.1293 10.9823C21.1032 10.9884 21.0756 11.0004 21.0607 11.0236C21.0428 11.0521 21.0562 11.0904 21.0741 11.1152C21.6389 11.9115 21.9643 12.8826 21.9643 13.9243ZM24.2319 18.2605C25.1519 18.4413 25.7571 18.8106 26.0078 19.3472C26.2197 19.7877 26.2197 20.2988 26.0078 20.7386C25.6242 21.5709 24.3878 21.8381 23.9073 21.9072C23.8081 21.9222 23.7282 21.8359 23.7387 21.736C23.9842 19.4297 22.0314 18.3363 21.5263 18.0848C21.5046 18.0736 21.5002 18.0563 21.5024 18.0458C21.5039 18.0383 21.5129 18.0263 21.5293 18.024C22.6224 18.0038 23.7976 18.1539 24.2319 18.2605ZM12.3643 16.8677C12.5016 16.864 12.6359 16.852 12.7672 16.8287C12.862 16.8122 12.9098 16.7049 12.856 16.6253C12.3337 15.8523 12.036 14.9224 12.036 13.9243C12.036 12.8826 12.3613 11.9114 12.9262 11.1151C12.9441 11.0903 12.9568 11.0521 12.9396 11.0236C12.9247 11.001 12.8963 10.9883 12.871 10.9823C12.6799 10.9432 12.4844 10.9215 12.28 10.9215C10.3996 10.9215 8.92297 12.7009 9.42664 14.683C9.76614 16.0174 10.9951 16.9038 12.3643 16.8677ZM12.4975 18.0454C12.4997 18.0566 12.4953 18.0731 12.4744 18.0851C11.9685 18.3366 10.0157 19.43 10.2612 21.7356C10.2717 21.8362 10.1926 21.9217 10.0933 21.9075C9.6128 21.8384 8.3764 21.5712 7.99287 20.7389C7.78021 20.2984 7.78021 19.788 7.99287 19.3475C8.24358 18.8109 8.84798 18.4416 9.768 18.26C10.203 18.1542 11.3775 18.0041 12.4714 18.0243C12.4878 18.0266 12.496 18.0386 12.4975 18.0454Z" fill="#1A535C"/>
</svg>
