<svg width="45" height="45" viewBox="0 0 45 45" fill="none" xmlns="http://www.w3.org/2000/svg">
<circle cx="22.5" cy="22.5" r="22.5" fill="#1A535C"/>
<path fill-rule="evenodd" clip-rule="evenodd" d="M16.113 15.5H21.9051C24.3271 15.5 26.0181 17.169 26.0181 19.5609V26.4391C26.0181 28.831 24.3271 30.5 21.9051 30.5H16.113C13.691 30.5 12 28.831 12 26.4391V19.5609C12 17.169 13.691 15.5 16.113 15.5ZM29.958 17.879C30.397 17.6556 30.912 17.679 31.331 17.9429C31.75 18.2059 32 18.6627 32 19.1622V26.8384C32 27.3389 31.75 27.7947 31.331 28.0577C31.102 28.2008 30.846 28.2739 30.588 28.2739C30.373 28.2739 30.158 28.2231 29.957 28.1206L28.476 27.3734C27.928 27.0952 27.588 26.5369 27.588 25.9165V20.083C27.588 19.4617 27.928 18.9034 28.476 18.6272L29.958 17.879Z" fill="white"/>
</svg>
