<svg width="34" height="34" viewBox="0 0 34 34" fill="none" xmlns="http://www.w3.org/2000/svg">
<rect width="34" height="34" rx="17" fill="white"/>
<path d="M21.9321 18.9334C21.7163 19.1426 21.6171 19.4451 21.6663 19.7418L22.4071 23.8418C22.4696 24.1893 22.3229 24.5409 22.0321 24.7418C21.7471 24.9501 21.3679 24.9751 21.0571 24.8084L17.3663 22.8834C17.2379 22.8151 17.0954 22.7784 16.9496 22.7743H16.7238C16.6454 22.7859 16.5688 22.8109 16.4988 22.8493L12.8071 24.7834C12.6246 24.8751 12.4179 24.9076 12.2154 24.8751C11.7221 24.7818 11.3929 24.3118 11.4738 23.8159L12.2154 19.7159C12.2646 19.4168 12.1654 19.1126 11.9496 18.9001L8.94045 15.9834C8.68878 15.7393 8.60128 15.3726 8.71628 15.0418C8.82795 14.7118 9.11294 14.4709 9.45711 14.4168L13.5988 13.8159C13.9138 13.7834 14.1904 13.5918 14.3321 13.3084L16.1571 9.56677C16.2004 9.48344 16.2563 9.40677 16.3238 9.34177L16.3988 9.28344C16.4379 9.2401 16.4829 9.20427 16.5329 9.1751L16.6238 9.14177L16.7654 9.08344H17.1163C17.4296 9.11594 17.7054 9.30344 17.8496 9.58344L19.6988 13.3084C19.8321 13.5809 20.0913 13.7701 20.3904 13.8159L24.5321 14.4168C24.8821 14.4668 25.1746 14.7084 25.2904 15.0418C25.3996 15.3759 25.3054 15.7426 25.0488 15.9834L21.9321 18.9334Z" fill="#1A535C"/>
</svg>
