<svg width="64" height="64" viewBox="0 0 64 64" fill="none" xmlns="http://www.w3.org/2000/svg">
<rect width="64" height="64" rx="10" fill="#1A535C"/>
<path d="M28.7516 24.4985C28.1989 23.9455 27.3011 23.9455 26.7484 24.4985L25.625 25.6219L24.5016 24.4985C23.9489 23.9455 23.0511 23.9455 22.4984 24.4985C21.9453 25.0519 21.9453 25.9484 22.4984 26.5018L23.6217 27.6251L22.4984 28.7485C21.9453 29.3019 21.9453 30.1984 22.4984 30.7518C22.7747 31.0288 23.1372 31.1668 23.5 31.1668C23.8628 31.1668 24.2253 31.0288 24.5016 30.7518L25.625 29.6284L26.7484 30.7518C27.0247 31.0288 27.3872 31.1668 27.75 31.1668C28.1128 31.1668 28.4753 31.0288 28.7516 30.7518C29.3047 30.1984 29.3047 29.3019 28.7516 28.7485L27.6283 27.6251L28.7516 26.5018C29.3047 25.9484 29.3047 25.0519 28.7516 24.4985Z" fill="white"/>
<path d="M38.375 35.4167C35.6409 35.4167 33.4166 37.6417 33.4166 40.3751C33.4166 43.1085 35.6409 45.3334 38.375 45.3334C41.109 45.3334 43.3333 43.1085 43.3333 40.3751C43.3333 37.6417 41.109 35.4167 38.375 35.4167ZM38.375 42.5001C37.2035 42.5001 36.25 41.5465 36.25 40.3751C36.25 39.2036 37.2035 38.2501 38.375 38.2501C39.5464 38.2501 40.5 39.2036 40.5 40.3751C40.5 41.5465 39.5464 42.5001 38.375 42.5001Z" fill="white"/>
<path d="M48.585 17.415C48.0323 16.862 47.1344 16.862 46.5817 17.415L42.1736 21.8231C40.8995 21.0722 39.2732 21.0743 38.0004 21.9231L36.1701 23.144L33.1382 20.1124C33.1293 20.1031 33.1178 20.0969 33.1085 20.0882C31.1066 18.0971 28.4521 17 25.625 17C22.7854 17 20.1178 18.1064 18.1145 20.1124C16.1064 22.1178 15 24.7854 15 27.625C15 30.4646 16.1064 33.1322 18.1124 35.1355C20.1313 37.1598 22.8235 38.258 25.6101 38.258C26.0912 38.258 26.5754 38.2123 27.0593 38.1459L27.8455 38.9327C27.3917 42.2202 28.4895 45.5198 30.8631 47.8862C32.8678 49.8936 35.5354 51 38.375 51C41.2146 51 43.8822 49.8936 45.8855 47.8876C47.8936 45.8822 49 43.2146 49 40.375C49 37.5472 47.9022 34.8909 45.9097 32.8887C45.9017 32.8801 45.8962 32.8701 45.8876 32.8624L42.9501 29.925L44.1862 27.9439C44.9938 26.6503 44.9624 25.0608 44.1904 23.8122L48.585 19.4176C49.138 18.8649 49.138 17.9684 48.585 17.415ZM43.8815 45.8836C42.4126 47.3556 40.4568 48.1667 38.375 48.1667C36.2932 48.1667 34.3374 47.3556 32.8657 45.8815C30.9863 44.0073 30.1953 41.3396 30.7497 38.7446C30.7504 38.7408 30.7504 38.7373 30.7511 38.7339C30.7646 38.6685 30.7691 38.6028 30.7732 38.536C30.7746 38.5087 30.7808 38.4803 30.7808 38.4534C30.7808 38.4008 30.7725 38.3486 30.7666 38.296C30.7625 38.2569 30.7632 38.2175 30.7556 38.1791C30.749 38.1459 30.7355 38.1141 30.7265 38.0816C30.7116 38.0269 30.6995 37.9709 30.6781 37.9187C30.665 37.8851 30.6449 37.8554 30.6286 37.8229C30.6037 37.7727 30.5813 37.7215 30.5508 37.6748C30.5346 37.6499 30.5131 37.6288 30.4955 37.6053C30.4571 37.5538 30.419 37.5019 30.3737 37.4559C30.371 37.4531 30.3696 37.4497 30.3665 37.4469L28.5531 35.6328C28.5496 35.629 28.5455 35.627 28.5427 35.6235C28.5029 35.5844 28.4576 35.5519 28.413 35.518C28.3826 35.4945 28.3549 35.4675 28.3231 35.4471C28.2868 35.4236 28.2467 35.4066 28.2083 35.3869C28.1657 35.3641 28.1246 35.3382 28.0806 35.3202C28.0008 35.2877 27.9164 35.2638 27.8306 35.2458C27.8278 35.2451 27.8251 35.2437 27.8216 35.243C27.7562 35.2302 27.6884 35.2275 27.621 35.224C27.5971 35.2226 27.5729 35.2178 27.5487 35.2178C27.5072 35.2178 27.4654 35.2261 27.4228 35.2296C27.3709 35.2347 27.3187 35.2368 27.2675 35.2465C27.2634 35.2475 27.2585 35.2475 27.254 35.2482C24.6573 35.8027 21.9913 35.0137 20.115 33.1308C18.6444 31.6626 17.8333 29.7068 17.8333 27.625C17.8333 25.5432 18.6444 23.5874 20.1185 22.1164C21.5874 20.6444 23.5432 19.8333 25.625 19.8333C27.7068 19.8333 29.6626 20.6444 31.1315 22.1164C31.1374 22.1219 31.1443 22.1261 31.1506 22.132L34.9727 25.9541C34.9855 25.9676 34.999 25.9811 35.0125 25.9936L40.1514 31.1328C40.1642 31.1456 40.177 31.1587 40.1904 31.1715L43.866 34.847C43.8725 34.8536 43.8767 34.8612 43.8829 34.8685C45.3556 36.3374 46.1667 38.2932 46.1667 40.375C46.1667 42.4568 45.3556 44.4126 43.8815 45.8836ZM38.2128 25.1877L39.572 24.2808C40.004 23.992 40.5865 24.0494 40.9548 24.4171L41.6275 25.0898C41.9896 25.4526 42.0533 26.0095 41.7821 26.4442L40.8939 27.8688L38.2128 25.1877Z" fill="white"/>
<path d="M34.4183 35.0017C34.9713 34.4483 34.9713 33.5518 34.4183 32.9984L33.0016 31.5818C32.4489 31.0287 31.5511 31.0287 30.9984 31.5818C30.4453 32.1352 30.4453 33.0316 30.9984 33.585L32.415 35.0017C32.6914 35.2787 33.0538 35.4167 33.4167 35.4167C33.7795 35.4167 34.1419 35.2787 34.4183 35.0017Z" fill="white"/>
</svg>
