<svg width="64" height="64" viewBox="0 0 64 64" fill="none" xmlns="http://www.w3.org/2000/svg">
<rect width="64" height="64" rx="10" fill="#1A535C"/>
<path fill-rule="evenodd" clip-rule="evenodd" d="M35.23 19.25C35.8247 19.2502 36.4042 19.4374 36.8865 19.7852C37.3688 20.1331 37.7295 20.6238 37.9174 21.188L38.6867 23.5H41.9167C43.0438 23.5 44.1248 23.9478 44.9219 24.7448C45.7189 25.5418 46.1667 26.6228 46.1667 27.75V39.0833C46.1667 40.2105 45.7189 41.2915 44.9219 42.0885C44.1248 42.8856 43.0438 43.3333 41.9167 43.3333H22.0833C20.9562 43.3333 19.8752 42.8856 19.0781 42.0885C18.2811 41.2915 17.8333 40.2105 17.8333 39.0833V27.75C17.8333 26.6228 18.2811 25.5418 19.0781 24.7448C19.8752 23.9478 20.9562 23.5 22.0833 23.5H25.3133L26.0826 21.188C26.2706 20.6236 26.6315 20.1327 27.1141 19.7848C27.5967 19.437 28.1765 19.2499 28.7714 19.25H35.23ZM35.23 22.0833H28.77L28.0008 24.3953C27.8128 24.9598 27.4519 25.4507 26.9693 25.7985C26.4867 26.1464 25.9068 26.3335 25.3119 26.3333H22.0833C21.7076 26.3333 21.3473 26.4826 21.0816 26.7483C20.8159 27.0139 20.6667 27.3743 20.6667 27.75V39.0833C20.6667 39.4591 20.8159 39.8194 21.0816 40.0851C21.3473 40.3507 21.7076 40.5 22.0833 40.5H41.9167C42.2924 40.5 42.6527 40.3507 42.9184 40.0851C43.1841 39.8194 43.3333 39.4591 43.3333 39.0833V27.75C43.3333 27.3743 43.1841 27.0139 42.9184 26.7483C42.6527 26.4826 42.2924 26.3333 41.9167 26.3333H38.6867C38.092 26.3332 37.5125 26.1459 37.0302 25.7981C36.5478 25.4503 36.1872 24.9595 35.9993 24.3953L35.23 22.0833ZM28.4583 32.7083C28.4583 31.769 28.8315 30.8682 29.4957 30.204C30.1599 29.5398 31.0607 29.1667 32 29.1667C32.9393 29.1667 33.8401 29.5398 34.5043 30.204C35.1685 30.8682 35.5417 31.769 35.5417 32.7083C35.5417 33.6476 35.1685 34.5485 34.5043 35.2127C33.8401 35.8769 32.9393 36.25 32 36.25C31.0607 36.25 30.1599 35.8769 29.4957 35.2127C28.8315 34.5485 28.4583 33.6476 28.4583 32.7083ZM32 26.3333C30.3092 26.3333 28.6877 27.005 27.4922 28.2005C26.2967 29.3961 25.625 31.0176 25.625 32.7083C25.625 34.3991 26.2967 36.0206 27.4922 37.2161C28.6877 38.4117 30.3092 39.0833 32 39.0833C33.6908 39.0833 35.3123 38.4117 36.5078 37.2161C37.7034 36.0206 38.375 34.3991 38.375 32.7083C38.375 31.0176 37.7034 29.3961 36.5078 28.2005C35.3123 27.005 33.6908 26.3333 32 26.3333Z" fill="white"/>
</svg>
