<svg width="64" height="64" viewBox="0 0 64 64" fill="none" xmlns="http://www.w3.org/2000/svg">
<rect width="64" height="64" rx="10" fill="#1A535C"/>
<path fill-rule="evenodd" clip-rule="evenodd" d="M42.5428 18.6876C42.7801 18.8045 42.9799 18.9854 43.1196 19.21C43.2593 19.4346 43.3333 19.6938 43.3333 19.9583V25.5754L44.5942 26.4169C45.5134 27.0297 46.2672 27.86 46.7885 28.8341C47.3099 29.8081 47.5826 30.8959 47.5826 32.0007C47.5826 33.1055 47.3099 34.1932 46.7885 35.1673C46.2672 36.1414 45.5134 36.9717 44.5942 37.5845L43.3333 38.4246V42.625C43.3335 42.8872 43.2608 43.1444 43.1234 43.3678C42.9861 43.5912 42.7894 43.7721 42.5553 43.8903C42.3212 44.0085 42.0589 44.0594 41.7975 44.0374C41.5362 44.0153 41.2861 43.9212 41.0752 43.7654L41.0667 43.7583L41.0412 43.7399L40.9377 43.6634L40.5425 43.3801C40.2053 43.1421 39.7293 42.8106 39.1825 42.4451C38.0718 41.7056 36.7288 40.8711 35.6479 40.3654C33.6816 39.4446 31.6317 38.7603 30.0606 38.3041C29.497 38.1404 28.9302 37.9879 28.3606 37.8466C27.812 38.738 27.6118 39.8006 27.7982 40.8306C27.9846 41.8605 28.5445 42.7855 29.3707 43.4282C31.1174 44.7868 30.1583 47.5833 27.9483 47.5833H23.5C23.2225 47.5836 22.9511 47.5023 22.7194 47.3497C22.4878 47.1971 22.306 46.9798 22.1967 46.7248L21.6583 45.464C20.4968 42.7543 20.4368 39.6987 21.4912 36.9456L21.5549 36.7784C19.9542 36.3886 18.5519 35.4255 17.6134 34.0716C16.6748 32.7176 16.2651 31.0665 16.4618 29.4308C16.6585 27.7951 17.4479 26.2882 18.6807 25.1953C19.9134 24.1024 21.504 23.4992 23.1515 23.5H27.75C27.7878 23.4999 27.8256 23.5013 27.8633 23.5042H27.8662L27.8917 23.5071L28.0149 23.5127C28.7912 23.5407 29.5684 23.5227 30.3425 23.4589C31.864 23.3342 33.8247 23.0027 35.689 22.1981C36.7586 21.7376 38.0832 20.916 39.1882 20.1694C39.775 19.7713 40.3527 19.3599 40.9207 18.9355L41.0227 18.859L41.0482 18.8391L41.0539 18.8349C41.2636 18.6738 41.5142 18.5747 41.7773 18.5486C42.0405 18.5226 42.3056 18.5707 42.5428 18.6876ZM26.3333 26.3333H23.1515C22.1658 26.3335 21.2168 26.7068 20.4951 27.3781C19.7734 28.0495 19.3325 28.9691 19.2611 29.9521C19.1897 30.9352 19.493 31.9089 20.1101 32.6775C20.7272 33.446 21.6124 33.9526 22.5877 34.0952L23.6997 34.2567L26.3333 34.6222V26.3333ZM29.1667 35.128C29.6214 35.2413 30.1966 35.3943 30.8525 35.5856C32.5043 36.0644 34.7044 36.7968 36.8507 37.7998C38.0392 38.3566 39.4049 39.1995 40.5 39.9206V22.701C39.4077 23.4291 38.0322 24.2735 36.811 24.8005C34.5684 25.7681 32.2777 26.1435 30.5762 26.2837C30.0492 26.3262 29.5747 26.3489 29.1667 26.3574V35.1266V35.128ZM25.438 37.3592L24.4208 37.2176L24.1375 37.9585C23.3464 40.0233 23.3911 42.3152 24.2622 44.3476L24.4336 44.75H26.6577C25.7851 43.7545 25.2085 42.5347 24.9932 41.2286C24.7779 39.9224 24.9325 38.5821 25.4394 37.3592H25.438ZM43.3333 34.9962C43.7762 34.6325 44.1328 34.1751 44.3778 33.657C44.6227 33.139 44.7497 32.573 44.7497 32C44.7497 31.4269 44.6227 30.861 44.3778 30.3429C44.1328 29.8248 43.7762 29.3675 43.3333 29.0037V34.9962Z" fill="white"/>
</svg>
