<svg class="icon" width="48" height="48" viewBox="0 0 48 48" fill="none" xmlns="http://www.w3.org/2000/svg">
<circle opacity="0.16" cx="24" cy="24" r="24" fill="white"/>
<path d="M24 20.9091C22.1945 20.9091 20.7273 22.3763 20.7273 24.1818C20.7273 25.9872 22.1945 27.4545 24 27.4545C25.8055 27.4545 27.2727 25.9872 27.2727 24.1818C27.2727 22.3763 25.8054 20.9091 24 20.9091Z" fill="white"/>
<path d="M24 16C18.5454 16 13.8873 19.3927 12 24.1818C13.8873 28.9709 18.5454 32.3636 24 32.3636C29.46 32.3636 34.1127 28.9709 36 24.1818C34.1127 19.3927 29.46 16 24 16ZM24 29.6363C20.9891 29.6363 18.5454 27.1927 18.5454 24.1818C18.5454 21.1708 20.9891 18.7273 24 18.7273C27.0109 18.7273 29.4546 21.1709 29.4546 24.1818C29.4546 27.1927 27.0109 29.6363 24 29.6363Z" fill="white"/>
</svg>
