<svg width="64" height="64" viewBox="0 0 64 64" fill="none" xmlns="http://www.w3.org/2000/svg">
<rect width="64" height="64" rx="10" fill="#1A535C"/>
<path d="M16.4167 49H47.5833C48.3653 49 49 48.3653 49 47.5833V39.1584C49 36.876 48.1077 34.7341 46.4876 33.1268C44.8669 31.5182 42.7333 30.6733 40.4326 30.6605C36.5312 30.6909 34.4878 30.684 33.4167 30.6663V16.4167C33.4167 15.6347 32.782 15 32 15H16.4167C15.6347 15 15 15.6347 15 16.4167V47.5833C15 48.3653 15.6347 49 16.4167 49ZM17.8333 43.3333H20.6667V46.1667H17.8333V43.3333ZM30.5833 43.3333V46.1667H23.5V43.3333H30.5833ZM40.5 43.3333V46.1667H33.4167V43.3333H40.5ZM43.3333 46.1667V43.3333H46.1667V46.1667H43.3333ZM30.5833 17.8333V20.6667H27.75C26.968 20.6667 26.3333 21.3013 26.3333 22.0833C26.3333 22.8653 26.968 23.5 27.75 23.5H30.5833V26.3333H27.75C26.968 26.3333 26.3333 26.968 26.3333 27.75C26.3333 28.532 26.968 29.1667 27.75 29.1667H30.5833V31.9426C30.574 32.148 30.6089 32.3569 30.6909 32.5541C31.116 33.5682 31.118 33.5682 40.4547 33.4945C41.9762 33.5045 43.4118 34.0669 44.4913 35.1387C45.5718 36.2095 46.1667 37.6369 46.1667 39.1584V40.5H17.8333V17.8333H30.5833Z" fill="white"/>
</svg>
