<svg width="34" height="34" viewBox="0 0 34 34" fill="none" xmlns="http://www.w3.org/2000/svg">
<rect width="34" height="34" rx="17" fill="#1A535C"/>
<path fill-rule="evenodd" clip-rule="evenodd" d="M14.675 9.5H19.3025C21.335 9.5 22.9775 10.3025 23 12.3425V23.7275C23 23.855 22.97 23.9825 22.91 24.095C22.8125 24.275 22.6475 24.41 22.445 24.47C22.25 24.53 22.0325 24.5 21.8525 24.395L16.9925 21.965L12.125 24.395C12.0132 24.4542 11.885 24.4925 11.7575 24.4925C11.3375 24.4925 11 24.1475 11 23.7275V12.3425C11 10.3025 12.65 9.5 14.675 9.5ZM14.165 15.215H19.8125C20.135 15.215 20.3975 14.9517 20.3975 14.6225C20.3975 14.2925 20.135 14.03 19.8125 14.03H14.165C13.8425 14.03 13.58 14.2925 13.58 14.6225C13.58 14.9517 13.8425 15.215 14.165 15.215Z" fill="white"/>
</svg>
