<svg width="34" height="34" viewBox="0 0 34 34" fill="none" xmlns="http://www.w3.org/2000/svg">
<rect width="34" height="34" rx="17" fill="white"/>
<path fill-rule="evenodd" clip-rule="evenodd" d="M12.0942 11.75H16.9209C18.9392 11.75 20.3484 13.1409 20.3484 15.1341V20.8659C20.3484 22.8591 18.9392 24.25 16.9209 24.25H12.0942C10.0758 24.25 8.66663 22.8591 8.66663 20.8659V15.1341C8.66663 13.1409 10.0758 11.75 12.0942 11.75ZM23.6316 13.7325C23.9974 13.5464 24.4266 13.5658 24.7758 13.7858C25.1249 14.0049 25.3333 14.3856 25.3333 14.8019V21.1986C25.3333 21.6157 25.1249 21.9956 24.7758 22.2147C24.5849 22.334 24.3716 22.3949 24.1566 22.3949C23.9774 22.3949 23.7983 22.3526 23.6308 22.2672L22.3966 21.6445C21.9399 21.4127 21.6566 20.9474 21.6566 20.4305V15.5692C21.6566 15.0514 21.9399 14.5861 22.3966 14.356L23.6316 13.7325Z" fill="#1A535C"/>
</svg>
