<svg class="icon" width="34" height="34" viewBox="0 0 34 34" fill="none" xmlns="http://www.w3.org/2000/svg">
<rect width="34" height="34" rx="17" fill="#1A535C"/>
<path fill-rule="evenodd" clip-rule="evenodd" d="M9.5 17.0043C9.5 12.8647 12.8663 9.5 17 9.5C21.1337 9.5 24.5 12.8647 24.5 17.0043C24.5 21.1353 21.1337 24.5 17 24.5C12.8663 24.5 9.5 21.1353 9.5 17.0043ZM19.751 17.7634C19.8306 17.6838 19.932 17.5608 19.9537 17.5318C20.0695 17.3799 20.1274 17.1918 20.1274 17.0043C20.1274 16.7938 20.0623 16.5984 19.9392 16.4392C19.9291 16.4291 19.9094 16.4076 19.8836 16.3796C19.8355 16.3272 19.7663 16.252 19.7003 16.186C19.1067 15.5492 17.5574 14.5072 16.7466 14.1889C16.6236 14.1389 16.3123 14.0297 16.1458 14.0224C15.9865 14.0224 15.8345 14.0586 15.6897 14.131C15.5087 14.2323 15.3639 14.3915 15.2843 14.5796C15.2336 14.7098 15.154 15.1006 15.154 15.1078C15.0743 15.5347 15.0309 16.2294 15.0309 16.9964C15.0309 17.7279 15.0743 18.3929 15.1395 18.8271C15.1413 18.8289 15.1475 18.8599 15.1572 18.9081C15.1866 19.0548 15.2479 19.3603 15.3132 19.4855C15.4725 19.7894 15.7838 19.9776 16.1168 19.9776H16.1458C16.3629 19.9703 16.819 19.7822 16.819 19.775C17.5864 19.4566 19.0994 18.4653 19.7075 17.8068L19.751 17.7634Z" fill="white"/>
</svg>
