<svg width="64" height="64" viewBox="0 0 64 64" fill="none" xmlns="http://www.w3.org/2000/svg">
<rect width="64" height="64" rx="10" fill="#1A535C"/>
<path d="M47.5833 30.5833H44.7217C44.733 30.3475 44.75 30.1123 44.75 29.875C44.75 23.6898 40.852 18.0834 35.0472 15.9237C35.0359 15.9194 35.0246 15.9166 35.0133 15.913C35.0104 15.9123 35.0083 15.9102 35.0055 15.9095C35.0019 15.9081 34.9984 15.9081 34.9948 15.9074C33.3494 15.3067 31.6281 15 29.875 15C28.6921 15 27.5474 15.1537 26.4438 15.4158C26.3142 15.43 26.1874 15.464 26.0656 15.5135C19.7062 17.2022 15 22.9914 15 29.875C15 29.938 15.0078 30.0004 15.0085 30.0634C15.0106 30.1003 15.0085 30.1378 15.0135 30.1732C15.0829 33.6015 16.3274 36.9087 18.5537 39.5119L18.5565 39.5147C18.558 39.5161 18.5594 39.5175 18.5608 39.5197C21.3927 42.8439 25.5159 44.75 29.875 44.75H42.7461L46.5817 48.5849C46.8523 48.8562 47.215 49 47.5833 49C47.7654 49 47.9502 48.9646 48.1252 48.8923C48.655 48.6727 49 48.1564 49 47.5833V32C49 31.218 48.3653 30.5833 47.5833 30.5833ZM33.5569 24.7275L35.4057 19.1862C39.349 21.2376 41.9167 25.3622 41.9167 29.875C41.9167 30.1116 41.9096 30.3482 41.8961 30.5833H38.273C37.8551 29.7716 37.2317 29.081 36.4448 28.5858L34.5103 27.3859C33.6157 26.8249 33.224 25.7305 33.5569 24.7275ZM25.2793 18.7492L25.7334 20.5654C25.9657 21.4933 25.5705 22.4474 24.7495 22.9404C23.6062 23.6268 22.798 24.7169 22.475 26.0103L22.1655 27.2499C21.9048 28.2933 20.933 28.9733 19.8719 28.8755C19.2287 28.8146 18.5502 28.7523 17.8942 28.6942C18.3334 24.1935 21.261 20.4152 25.2793 18.7492ZM28.4583 41.8331C26.1095 41.5547 23.908 40.5822 22.1067 39.055L23.0268 38.6498C24.2416 38.1101 25.6349 38.1002 26.8547 38.6222L28.1424 39.1712C28.2437 39.2158 28.3535 39.2498 28.4583 39.2895V41.8331ZM28.4583 32V36.2266L27.9682 36.0177C26.0295 35.1868 23.8095 35.2024 21.8836 36.058L20.7694 36.5489C20.5427 36.6488 20.3033 36.7536 20.0703 36.8556C18.9461 35.2824 18.23 33.457 17.9615 31.5445C18.5112 31.5941 19.0715 31.6458 19.6042 31.6968C19.7664 31.7117 19.9279 31.7195 20.088 31.7195C22.3638 31.7195 24.3507 30.1909 24.9138 27.937L25.2234 26.6974C25.3629 26.1385 25.7121 25.6668 26.2072 25.37C28.1042 24.2317 29.0186 22.0245 28.4817 19.879L28.0107 17.9934C28.6198 17.8978 29.2396 17.8333 29.875 17.8333C30.8504 17.8333 31.8123 17.9587 32.7515 18.1889L30.8681 23.8329C30.1222 26.0805 31.0012 28.5285 33.0101 29.79L34.2893 30.5833H29.875C29.093 30.5833 28.4583 31.218 28.4583 32ZM46.1667 44.1628L44.3349 42.3317C44.0693 42.0661 43.7087 41.9167 43.3333 41.9167H31.2917V38.2503C31.2917 38.2482 31.2917 38.2461 31.2917 38.2432V33.4167H37.3097H37.3118H37.3146H43.1633H46.1667V44.1628Z" fill="white"/>
</svg>
