<svg width="45" height="45" viewBox="0 0 45 45" fill="none" xmlns="http://www.w3.org/2000/svg">
<circle cx="22.5" cy="22.5" r="22.5" fill="#1A535C"/>
<path fill-rule="evenodd" clip-rule="evenodd" d="M18.6699 13.0001H27.3399C30.7299 13.0001 32.9999 15.3791 32.9999 18.9191V27.0891C32.9999 30.6201 30.7299 33.0001 27.3399 33.0001H18.6699C15.2799 33.0001 12.9999 30.6201 12.9999 27.0891V18.9191C12.9999 15.3791 15.2799 13.0001 18.6699 13.0001ZM26.5799 26.8101C26.8299 26.8101 27.0799 26.6801 27.2199 26.4401C27.4399 26.0891 27.3199 25.6291 26.9599 25.4101L23.3999 23.2901V18.6691C23.3999 18.2601 23.0699 17.9191 22.6499 17.9191C22.2399 17.9191 21.8999 18.2601 21.8999 18.6691V23.7201C21.8999 23.9801 22.0399 24.2301 22.2699 24.3601L26.1899 26.7001C26.3099 26.7801 26.4499 26.8101 26.5799 26.8101Z" fill="white"/>
</svg>
