<svg width="64" height="64" viewBox="0 0 64 64" fill="none" xmlns="http://www.w3.org/2000/svg">
<rect width="64" height="64" rx="10" fill="#1A535C"/>
<path fill-rule="evenodd" clip-rule="evenodd" d="M30.9333 48.5153C31.0662 48.6674 31.2302 48.7894 31.4142 48.8729C31.5982 48.9565 31.7979 48.9997 32 48.9997C32.2021 48.9997 32.4018 48.9565 32.5858 48.8729C32.7698 48.7894 32.9338 48.6674 33.0668 48.5153L37.6001 43.332H43.3333C44.4605 43.332 45.5415 42.8842 46.3385 42.0872C47.1356 41.2902 47.5833 40.2093 47.5833 39.0822V19.2498C47.5833 18.1227 47.1356 17.0417 46.3385 16.2447C45.5415 15.4477 44.4605 15 43.3333 15H20.6667C19.5395 15 18.4585 15.4477 17.6615 16.2447C16.8644 17.0417 16.4167 18.1227 16.4167 19.2498V39.0822C16.4167 40.2093 16.8644 41.2902 17.6615 42.0872C18.4585 42.8842 19.5395 43.332 20.6667 43.332H26.3985L30.9333 48.5153ZM35.8916 40.9832L32 45.4314L28.1084 40.9832C27.9755 40.8311 27.8115 40.7091 27.6275 40.6256C27.4435 40.542 27.2437 40.4988 27.0417 40.4988H20.6667C20.2909 40.4988 19.9306 40.3495 19.6649 40.0838C19.3993 39.8182 19.25 39.4579 19.25 39.0822V19.2498C19.25 18.8741 19.3993 18.5138 19.6649 18.2481C19.9306 17.9824 20.2909 17.8332 20.6667 17.8332H43.3333C43.7091 17.8332 44.0694 17.9824 44.3351 18.2481C44.6007 18.5138 44.75 18.8741 44.75 19.2498V39.0822C44.75 39.4579 44.6007 39.8182 44.3351 40.0838C44.0694 40.3495 43.7091 40.4988 43.3333 40.4988H36.9583C36.7564 40.4986 36.5567 40.5416 36.3727 40.6249C36.1887 40.7082 36.0247 40.8299 35.8916 40.9818V40.9832ZM26.3333 27.0071C26.3333 25.8653 27.2726 24.9162 28.4583 24.9162C29.6455 24.9162 30.5833 25.8653 30.5833 27.0071C30.5833 27.3828 30.7326 27.7431 30.9983 28.0088C31.2639 28.2744 31.6243 28.4237 32 28.4237C32.3757 28.4237 32.7361 28.2744 33.0017 28.0088C33.2674 27.7431 33.4167 27.3828 33.4167 27.0071C33.4167 25.8653 34.3545 24.9162 35.5417 24.9162C36.7288 24.9162 37.6667 25.8653 37.6667 27.0071C37.6667 28.4024 36.8521 29.9536 35.4907 31.543C34.4324 32.7783 33.1574 33.9059 32 34.8451C30.8426 33.9059 29.5676 32.7783 28.5093 31.5444C27.1479 29.9522 26.3333 28.401 26.3333 27.0057V27.0071ZM28.4583 22.083C29.841 22.083 31.0976 22.6482 32 23.5605C32.4628 23.0916 33.0143 22.7195 33.6223 22.4658C34.2304 22.2121 34.8828 22.082 35.5417 22.083C38.2673 22.083 40.5 24.2745 40.5 27.0071C40.5 29.4323 39.14 31.6394 37.6426 33.3874C36.1168 35.1681 34.2525 36.6952 32.8698 37.7718C32.6212 37.9653 32.3151 38.0703 32 38.0703C31.6849 38.0703 31.3789 37.9653 31.1302 37.7718C29.7475 36.6952 27.8832 35.1681 26.356 33.3874C24.86 31.6394 23.5 29.4323 23.5 27.0071C23.5 24.2745 25.7327 22.083 28.4583 22.083Z" fill="white"/>
</svg>
