<svg width="64" height="64" viewBox="0 0 64 64" fill="none" xmlns="http://www.w3.org/2000/svg">
<rect width="64" height="64" rx="10" fill="#1A535C"/>
<path fill-rule="evenodd" clip-rule="evenodd" d="M34.8179 19.4232C34.8179 20.8896 33.5496 22.0772 31.9868 22.0772C30.4227 22.0772 29.1558 20.8882 29.1558 19.4232C29.1558 17.9569 31.9868 15 31.9868 15C31.9868 15 34.8179 17.9583 34.8179 19.4232ZM15.6519 34.3094L18.2847 35.9938L20.6982 46.4581C20.7702 46.7701 20.9459 47.0485 21.1966 47.2477C21.4472 47.4469 21.7581 47.5553 22.0783 47.5551H41.8954C42.2154 47.555 42.5259 47.4465 42.7762 47.2473C43.0266 47.048 43.2021 46.7699 43.2741 46.4581L45.689 35.9938L48.3204 34.3094C48.4815 34.2114 48.6214 34.0821 48.7318 33.9293C48.8423 33.7764 48.9211 33.603 48.9636 33.4193C49.0061 33.2356 49.0114 33.0452 48.9793 32.8594C48.9472 32.6736 48.8783 32.496 48.7767 32.3372C48.675 32.1784 48.5426 32.0415 48.3873 31.9345C48.2319 31.8276 48.0568 31.7527 47.8721 31.7144C47.6875 31.6761 47.497 31.675 47.312 31.7113C47.1269 31.7477 46.951 31.8206 46.7945 31.9258L46.0372 32.4099C45.5616 29.0454 42.6739 26.3235 39.0247 26.3235H33.4023V24.9081C33.4023 24.5327 33.2532 24.1727 32.9878 23.9072C32.7223 23.6418 32.3623 23.4926 31.9868 23.4926C31.6114 23.4926 31.2514 23.6418 30.9859 23.9072C30.7205 24.1727 30.5713 24.5327 30.5713 24.9081V26.3235H24.9489C21.2997 26.3235 18.4121 29.0454 17.9365 32.4099L17.1792 31.9258C16.8631 31.7233 16.4795 31.6546 16.1128 31.7349C15.746 31.8152 15.4262 32.0379 15.2237 32.354C15.0211 32.6701 14.9525 33.0537 15.0328 33.4204C15.1131 33.7871 15.3358 34.1069 15.6519 34.3094ZM23.205 44.7242L21.5885 37.7178C22.562 37.9805 23.5803 38.0321 24.5754 37.8693C25.5704 37.7065 26.5192 37.3329 27.3581 36.7737L29.6328 35.2563C30.3304 34.7914 31.1499 34.5433 31.9883 34.5433C32.8266 34.5433 33.6461 34.7914 34.3437 35.2563L36.6184 36.7737C37.4573 37.3329 38.4061 37.7065 39.4011 37.8693C40.3962 38.0321 41.4145 37.9805 42.388 37.7178L40.7687 44.7242H23.2036H23.205ZM39.0262 29.1544C39.6543 29.1546 40.2746 29.2941 40.8423 29.5629C41.41 29.8317 41.911 30.2231 42.3092 30.7088C42.7074 31.1946 42.9929 31.7627 43.1451 32.3721C43.2972 32.9815 43.3123 33.6171 43.1892 34.233L42.8339 34.4609C42.1391 34.9058 41.3297 35.1388 40.5047 35.1313C39.6797 35.1237 38.8747 34.876 38.1882 34.4184L35.9135 32.9011C34.7509 32.126 33.3848 31.7124 31.9875 31.7124C30.5903 31.7124 29.2242 32.126 28.0616 32.9011L25.7869 34.4198C25.1007 34.8768 24.2963 35.1242 23.4718 35.1318C22.6473 35.1393 21.8385 34.9067 21.144 34.4623L20.7859 34.2344C20.6626 33.6184 20.6774 32.9826 20.8295 32.3731C20.9815 31.7635 21.267 31.1952 21.6652 30.7093C22.0634 30.2233 22.5645 29.8318 23.1324 29.5629C23.7002 29.2941 24.3206 29.1545 24.9489 29.1544H39.0247H39.0262ZM27.7403 40.4779C27.7403 40.1025 27.5912 39.7425 27.3257 39.477C27.0603 39.2116 26.7002 39.0625 26.3248 39.0625C25.9494 39.0625 25.5893 39.2116 25.3239 39.477C25.0584 39.7425 24.9093 40.1025 24.9093 40.4779V41.8933C24.9093 42.2687 25.0584 42.6288 25.3239 42.8942C25.5893 43.1597 25.9494 43.3088 26.3248 43.3088C26.7002 43.3088 27.0603 43.1597 27.3257 42.8942C27.5912 42.6288 27.7403 42.2687 27.7403 41.8933V40.4779ZM33.4023 40.4779C33.4023 40.1025 33.2532 39.7425 32.9878 39.477C32.7223 39.2116 32.3623 39.0625 31.9868 39.0625C31.6114 39.0625 31.2514 39.2116 30.9859 39.477C30.7205 39.7425 30.5713 40.1025 30.5713 40.4779V41.8933C30.5713 42.2687 30.7205 42.6288 30.9859 42.8942C31.2514 43.1597 31.6114 43.3088 31.9868 43.3088C32.3623 43.3088 32.7223 43.1597 32.9878 42.8942C33.2532 42.6288 33.4023 42.2687 33.4023 41.8933V40.4779ZM39.0644 40.4779C39.0644 40.1025 38.9152 39.7425 38.6498 39.477C38.3843 39.2116 38.0243 39.0625 37.6489 39.0625C37.2735 39.0625 36.9134 39.2116 36.648 39.477C36.3825 39.7425 36.2334 40.1025 36.2334 40.4779V41.8933C36.2334 42.2687 36.3825 42.6288 36.648 42.8942C36.9134 43.1597 37.2735 43.3088 37.6489 43.3088C38.0243 43.3088 38.3843 43.1597 38.6498 42.8942C38.9152 42.6288 39.0644 42.2687 39.0644 41.8933V40.4779Z" fill="white"/>
</svg>
