<svg width="84" height="19" viewBox="0 0 84 19" fill="none" xmlns="http://www.w3.org/2000/svg">
<path d="M7.392 18.36C8.896 18.36 10.16 17.988 11.184 17.244C12.208 16.5 12.904 15.44 13.272 14.064L9.936 13.368C9.744 13.992 9.456 14.472 9.072 14.808C8.688 15.144 8.128 15.312 7.392 15.312C6.408 15.312 5.664 14.964 5.16 14.268C4.664 13.564 4.416 12.648 4.416 11.52C4.416 10.44 4.652 9.54 5.124 8.82C5.604 8.092 6.36 7.728 7.392 7.728C7.992 7.728 8.528 7.916 9 8.292C9.48 8.668 9.816 9.192 10.008 9.864L13.272 9C12.984 7.664 12.32 6.612 11.28 5.844C10.248 5.068 8.968 4.68 7.44 4.68C6.12 4.68 4.976 4.976 4.008 5.568C3.04 6.16 2.288 6.972 1.752 8.004C1.224 9.036 0.96 10.208 0.96 11.52C0.96 12.816 1.216 13.98 1.728 15.012C2.24 16.044 2.976 16.86 3.936 17.46C4.896 18.06 6.048 18.36 7.392 18.36Z" fill="#4ECDC4"/>
<path d="M15.4322 11.688H22.6322V9.168H15.4322V11.688ZM25.9903 18H29.2543V0.36H25.9903V18ZM38.8759 18.36C40.1239 18.36 41.2719 18.032 42.3199 17.376C43.3759 16.72 44.1479 15.8 44.6359 14.616L41.3719 13.68C40.8759 14.768 39.9799 15.312 38.6839 15.312C37.7959 15.312 37.0959 15.064 36.5839 14.568C36.0799 14.072 35.7679 13.36 35.6479 12.432H44.7439C44.8799 10.864 44.7199 9.5 44.2639 8.34C43.8079 7.18 43.1039 6.28 42.1519 5.64C41.1999 5 40.0439 4.68 38.6839 4.68C37.4039 4.68 36.2719 4.972 35.2879 5.556C34.3039 6.132 33.5319 6.944 32.9719 7.992C32.4119 9.04 32.1319 10.272 32.1319 11.688C32.1319 12.984 32.4159 14.136 32.9839 15.144C33.5599 16.144 34.3519 16.932 35.3599 17.508C36.3759 18.076 37.5479 18.36 38.8759 18.36ZM38.8279 7.512C39.6119 7.512 40.2119 7.708 40.6279 8.1C41.0519 8.492 41.3239 9.128 41.4439 10.008H35.7319C36.0759 8.344 37.1079 7.512 38.8279 7.512ZM50.8191 18.36C51.8191 18.36 52.6591 18.208 53.3391 17.904C54.0271 17.592 54.6591 17.096 55.2351 16.416V18H58.0911V10.08C58.0911 9.488 58.0671 8.952 58.0191 8.472C57.9711 7.992 57.8191 7.512 57.5631 7.032C57.1071 6.168 56.4351 5.56 55.5471 5.208C54.6591 4.856 53.6431 4.68 52.4991 4.68C50.9391 4.68 49.7071 5.016 48.8031 5.688C47.8991 6.36 47.2831 7.232 46.9551 8.304L49.9071 9.24C50.1151 8.648 50.4791 8.236 50.9991 8.004C51.5191 7.772 52.0191 7.656 52.4991 7.656C53.2671 7.656 53.8391 7.8 54.2151 8.088C54.5911 8.368 54.8111 8.812 54.8751 9.42C53.6591 9.596 52.5871 9.768 51.6591 9.936C50.7311 10.096 49.9551 10.288 49.3311 10.512C48.2911 10.896 47.5591 11.42 47.1351 12.084C46.7111 12.74 46.4991 13.52 46.4991 14.424C46.4991 15.144 46.6631 15.804 46.9911 16.404C47.3271 16.996 47.8151 17.472 48.4551 17.832C49.1031 18.184 49.8911 18.36 50.8191 18.36ZM51.5151 15.792C50.9551 15.792 50.5111 15.668 50.1831 15.42C49.8551 15.164 49.6911 14.816 49.6911 14.376C49.6911 14.048 49.7951 13.768 50.0031 13.536C50.2111 13.296 50.5551 13.08 51.0351 12.888C51.4031 12.752 51.8551 12.628 52.3911 12.516C52.9351 12.396 53.7551 12.244 54.8511 12.06C54.8431 12.372 54.8191 12.716 54.7791 13.092C54.7391 13.46 54.6511 13.784 54.5151 14.064C54.4271 14.248 54.2591 14.476 54.0111 14.748C53.7711 15.02 53.4431 15.264 53.0271 15.48C52.6191 15.688 52.1151 15.792 51.5151 15.792ZM61.2113 18H64.4993V11.376C64.4993 9.872 65.0913 8.848 66.2753 8.304C66.6593 8.12 67.0873 8.012 67.5593 7.98C68.0393 7.94 68.4593 7.976 68.8193 8.088V5.04C68.2353 4.968 67.6513 4.984 67.0673 5.088C66.4833 5.184 65.9553 5.376 65.4833 5.664C65.1793 5.84 64.9113 6.052 64.6793 6.3C64.4553 6.548 64.2593 6.824 64.0913 7.128V5.04H61.2113V18ZM71.0779 18H74.3899V11.424C74.3899 10.616 74.4779 9.968 74.6539 9.48C74.8379 8.992 75.0699 8.624 75.3499 8.376C75.6299 8.12 75.9299 7.948 76.2499 7.86C76.5699 7.772 76.8699 7.728 77.1499 7.728C77.8459 7.728 78.3819 7.884 78.7579 8.196C79.1419 8.508 79.4179 8.896 79.5859 9.36C79.7539 9.824 79.8539 10.288 79.8859 10.752C79.9179 11.208 79.9339 11.584 79.9339 11.88V18H83.2459V10.728C83.2459 10.512 83.2299 10.168 83.1979 9.696C83.1659 9.224 83.0739 8.704 82.9219 8.136C82.7699 7.56 82.5139 7.008 82.1539 6.48C81.8019 5.952 81.3059 5.516 80.6659 5.172C80.0259 4.828 79.1979 4.656 78.1819 4.656C77.2459 4.656 76.4299 4.812 75.7339 5.124C75.0379 5.436 74.4539 5.852 73.9819 6.372V5.04H71.0779V18Z" fill="#272727"/>
</svg>
